<svg width="24" height="24" viewBox="0 0 24 24" fill="none" xmlns="http://www.w3.org/2000/svg">
<path fill-rule="evenodd" clip-rule="evenodd" d="M9.47908 16.021C9.33863 15.8804 9.25974 15.6897 9.25974 15.491C9.25974 15.2922 9.33863 15.1016 9.47908 14.961L12.9491 11.491L9.47908 8.021C9.3466 7.87882 9.27448 7.69078 9.27791 7.49647C9.28134 7.30217 9.36005 7.11679 9.49746 6.97937C9.63487 6.84196 9.82026 6.76325 10.0146 6.75982C10.2089 6.75639 10.3969 6.82852 10.5391 6.961L14.5391 10.961C14.6795 11.1016 14.7584 11.2922 14.7584 11.491C14.7584 11.6897 14.6795 11.8804 14.5391 12.021L10.5391 16.021C10.3985 16.1614 10.2078 16.2403 10.0091 16.2403C9.81033 16.2403 9.61971 16.1614 9.47908 16.021Z" fill="black"/>
</svg>
