<svg width="24" height="24" viewBox="0 0 24 24" fill="none" xmlns="http://www.w3.org/2000/svg">
<path fill-rule="evenodd" clip-rule="evenodd" d="M3.73484 6.55681C3.73484 5.0043 6.0964 5.0043 6.0964 6.55681C6.0964 5.0043 8.45795 5.0043 8.45795 6.55681C8.45795 5.0043 10.8195 5.0043 10.8195 6.55681C10.8195 5.0043 13.1811 5.0043 13.1811 6.55681C13.1811 5.0043 15.5426 5.0043 15.5426 6.55681C15.5426 5.0043 17.9042 5.0043 17.9042 6.55681C17.9042 5.0043 20.2657 5.0043 20.2657 6.55681C20.2657 5.0043 22.6273 5.0043 22.6273 6.55681V17.4439C22.6273 18.9964 20.2657 18.9964 20.2657 17.4439C20.2657 18.9964 17.9042 18.9964 17.9042 17.4439C17.9042 18.9964 15.5426 18.9964 15.5426 17.4439C15.5426 18.9964 13.1811 18.9964 13.1811 17.4439C13.1811 18.9964 10.8195 18.9964 10.8195 17.4439C10.8195 18.9964 8.45795 18.9964 8.45795 17.4439C8.45795 18.9964 6.0964 18.9964 6.0964 17.4439C6.0964 18.9964 3.73484 18.9964 3.73484 17.4439C3.73484 18.9964 1.37329 18.9964 1.37329 17.4439V6.55681C1.37329 5.0043 3.73484 5.0043 3.73484 6.55681ZM16.4474 8.30807L8.30708 16.4484L7.55147 15.6928L15.6918 7.55245L16.4474 8.30807ZM11.0426 8.17213C11.4392 8.56868 11.637 9.089 11.637 9.60838C11.637 10.1287 11.4382 10.6481 11.0426 11.0446C10.647 11.4403 10.1267 11.639 9.60635 11.639C9.08603 11.639 8.56573 11.4412 8.17009 11.0446C7.77447 10.649 7.57664 10.1287 7.57664 9.60838C7.57664 9.08806 7.77446 8.56777 8.17009 8.17213C8.56571 7.77651 9.08696 7.57868 9.60635 7.57868C10.1267 7.57868 10.647 7.77649 11.0426 8.17213ZM10.1529 9.06181C10.002 8.91087 9.80418 8.83493 9.60637 8.83493C9.40856 8.83493 9.21169 8.91087 9.05982 9.06181C8.80108 9.32055 8.77669 9.629 8.88544 9.88306C8.92763 9.98244 8.99045 10.0734 9.06732 10.1503C9.14419 10.2271 9.23419 10.289 9.33357 10.3321C9.58577 10.4399 9.89326 10.4156 10.153 10.1549C10.3039 10.004 10.3789 9.8062 10.3789 9.60839C10.3789 9.41058 10.3039 9.21274 10.1529 9.06181ZM15.8277 12.9563C16.2243 13.3528 16.4221 13.8732 16.4221 14.3925C16.4221 14.9129 16.2243 15.4322 15.8277 15.8288C15.4321 16.2244 14.9118 16.4222 14.3915 16.4222C13.8711 16.4222 13.3518 16.2244 12.9552 15.8288C12.5596 15.4332 12.3618 14.9129 12.3618 14.3925C12.3618 13.8722 12.5596 13.3519 12.9552 12.9563C13.3508 12.5607 13.8711 12.3619 14.3915 12.3619C14.9118 12.3619 15.4321 12.5597 15.8277 12.9563ZM14.938 13.846C14.7871 13.695 14.5893 13.6191 14.3915 13.6191C14.1946 13.6191 13.9968 13.695 13.8449 13.846C13.5862 14.1047 13.5618 14.4132 13.6706 14.6672C13.7128 14.7666 13.7756 14.8575 13.8524 14.9344C13.9293 15.0113 14.0193 15.0732 14.1187 15.1163C14.3718 15.2241 14.6784 15.1988 14.9381 14.9391C15.089 14.7882 15.165 14.5904 15.165 14.3926C15.165 14.1947 15.0899 13.9969 14.938 13.846Z" fill="black"/>
</svg>
