<svg width="24" height="24" viewBox="0 0 24 24" fill="none" xmlns="http://www.w3.org/2000/svg">
<path d="M20.2126 20.5949H3.78744C2.17776 20.5902 0.874564 19.2861 0.870004 17.6774V6.32257C0.86813 5.58101 1.14749 4.86663 1.65188 4.32289L1.6575 4.31726H1.65844V4.31632C2.21344 3.73413 2.98312 3.40413 3.7875 3.40507H20.2126C20.9879 3.40038 21.7323 3.70694 22.2808 4.25445C22.8282 4.8029 23.1348 5.54726 23.1301 6.32258V17.6775C23.1236 19.2862 21.8213 20.5884 20.2126 20.5949ZM3.37704 19.0358C3.51017 19.0752 3.64798 19.0949 3.78766 19.0949H20.2128C20.3159 19.0949 20.419 19.0846 20.5203 19.0621L14.4855 13.1024L13.9708 13.6171C12.8814 14.7036 11.1198 14.7083 10.0249 13.6274L9.4015 13.0124L3.37704 19.0358ZM15.5467 12.042L21.5918 18.011C21.6172 17.9013 21.6303 17.7898 21.6303 17.6773V6.3224C21.6303 6.21459 21.6181 6.10677 21.5947 6.00085C19.9934 7.60023 17.16 10.4304 15.5467 12.042ZM2.38899 6.0823C2.3768 6.16199 2.37024 6.24168 2.37024 6.3223V17.6772C2.37024 17.7531 2.37586 17.8281 2.38805 17.9031L8.33453 11.9576C6.84672 10.4867 3.68163 7.36006 2.38899 6.0823ZM11.0806 12.5613V12.5623C11.5859 13.0638 12.4024 13.0629 12.9068 12.5595C13.1084 12.356 15.4662 10.002 17.6262 7.84467L20.5333 4.94019C20.4283 4.91675 20.3205 4.90456 20.2127 4.90456H3.78756C3.65256 4.90456 3.5185 4.92331 3.38912 4.96081C5.16567 6.71768 10.0575 11.5476 11.0804 12.5621L11.0806 12.5613Z" fill="black"/>
</svg>
