<svg width="24" height="24" viewBox="0 0 24 24" fill="none" xmlns="http://www.w3.org/2000/svg">
<g clip-path="url(#clip0_1356_457)">
<path d="M19.5721 13.4513C22.0021 13.9491 23.7853 16.0894 23.7853 18.6665C23.7853 21.612 21.3975 24.001 18.4509 24.001C15.9412 24.001 13.7857 22.2132 13.2186 19.8768C12.1021 20.4149 10.9583 20.7187 9.8867 20.7187C8.85732 20.7187 8.02857 20.5368 7.09022 20.2068L6.27084 20.6212C1.78764 18.9187 -0.00012207 14.2799 -0.00012207 9.99184C-0.00012207 3.88312 4.47372 -7.62939e-05 9.9918 -7.62939e-05C15.5099 -7.62939e-05 19.9837 3.68992 19.9837 9.99184C19.9837 10.9209 19.844 12.2373 19.5721 13.4513ZM18.4509 14.2594C16.0293 14.2594 14.0661 16.2226 14.0661 18.6433C14.0661 21.0649 16.0292 23.0281 18.4509 23.0281C20.8726 23.0281 22.8357 21.0649 22.8357 18.6433C22.8348 16.2217 20.8726 14.2594 18.4509 14.2594ZM16.9462 13.5066C17.2556 12.4163 17.4009 11.2782 17.4009 10.185C17.4018 8.63064 17.0418 7.35278 16.4353 6.33014C16.4353 6.33014 15.0178 9.22334 10.4305 10.9708C7.29175 12.1661 3.34759 12.1408 3.34759 12.1408C3.59508 17.0392 6.32311 19.7449 9.88375 19.7449C11.0191 19.7449 11.9397 19.4684 12.9822 18.8421L12.9897 18.8553C12.9878 18.7962 12.9859 18.7381 12.9859 18.679C12.9859 16.2022 14.6706 14.118 16.9581 13.5116L16.9462 13.5066Z" fill="black"/>
<path d="M8.43548 13.589C8.43548 14.2209 7.92361 14.7328 7.29173 14.7328C6.65986 14.7328 6.14893 14.22 6.14893 13.589C6.14893 12.9581 6.6608 12.4462 7.29173 12.4462C7.92361 12.4462 8.43548 12.9581 8.43548 13.589Z" fill="black"/>
<path d="M15.0178 12.1058C15.0178 13.288 13.244 13.288 13.244 12.1058C13.244 10.9227 15.0178 10.9227 15.0178 12.1058Z" fill="black"/>
<path d="M17.0765 16.3603C17.0765 17.3419 15.6046 17.3419 15.6046 16.3603C15.6046 15.3788 17.0765 15.3788 17.0765 16.3603Z" fill="black"/>
<path d="M20.4251 17.1713C20.4251 18.391 18.5961 18.391 18.5961 17.1713C18.5961 15.9516 20.4251 15.9516 20.4251 17.1713Z" fill="black"/>
<path d="M10.9697 16.9958C10.7531 16.9958 10.5356 16.963 10.32 16.8974C10.1194 16.8365 10.0059 16.6237 10.0678 16.4239C10.1287 16.2233 10.3406 16.1099 10.5412 16.1708C11.0109 16.3152 11.4806 16.2214 11.9766 15.8877C12.15 15.7705 12.3862 15.8164 12.5034 15.9908C12.6197 16.1652 12.5747 16.4005 12.4003 16.5177C11.9269 16.8364 11.4478 16.9958 10.9697 16.9958Z" fill="black"/>
<path d="M17.4028 21.5729C17.0082 21.5729 16.5853 21.4894 16.1466 21.3273C15.4481 21.0685 14.9616 20.6391 14.701 20.0523C14.2388 19.0116 14.685 17.8669 14.7038 17.8201C14.7769 17.6363 14.9794 17.5388 15.1678 17.5969L19.8123 19.0285C19.9089 19.0585 19.9895 19.1251 20.0373 19.2141C20.0851 19.3032 20.0936 19.4082 20.0636 19.5047C19.8395 20.2191 18.9947 21.5729 17.4028 21.5729ZM15.3141 18.4351C15.2428 18.7651 15.1894 19.2845 15.3966 19.7476C15.5719 20.1386 15.9122 20.4301 16.4119 20.6148C16.7654 20.7461 17.0982 20.8126 17.4038 20.8126C18.4013 20.8126 18.945 20.0814 19.185 19.6276L15.3141 18.4351Z" fill="black"/>
</g>
<defs>
<clipPath id="clip0_1356_457">
<rect width="24" height="24" fill="white"/>
</clipPath>
</defs>
</svg>
