<svg width="24" height="24" viewBox="0 0 24 24" fill="none" xmlns="http://www.w3.org/2000/svg">
<path fill-rule="evenodd" clip-rule="evenodd" d="M3 23.25H21L21.0319 23.2463C21.1753 23.2266 21.75 23.1103 21.75 22.4916V21.75C21.75 19.1645 20.7225 16.6848 18.8945 14.8555C17.0664 13.0274 14.5867 12 12 12C9.41448 12 6.9348 13.0275 5.10552 14.8555C3.27739 16.6837 2.25 19.1633 2.25 21.75V22.4916C2.25 23.1984 3 23.25 3 23.25ZM12 0.75C9.1032 0.75 6.75 3.10313 6.75 6C6.75 8.89687 9.10313 11.25 12 11.25C14.8969 11.25 17.25 8.89687 17.25 6C17.25 3.10313 14.8969 0.75 12 0.75Z" fill="black"/>
</svg>
