<svg width="24" height="24" viewBox="0 0 24 24" fill="none" xmlns="http://www.w3.org/2000/svg">
<path fill-rule="evenodd" clip-rule="evenodd" d="M14.3971 22.9642C6.92802 20.149 2.4609 12.4126 3.7593 4.53937C3.90274 2.22469 5.89586 0.464891 8.20962 0.609371C9.12462 0.666558 9.99556 1.02092 10.6903 1.61905L10.1943 6.20425L9.95527 8.49174C9.31214 8.84142 8.58933 9.01767 7.85807 9.00174C8.31652 12.2369 10.0096 15.1685 12.5822 17.1833C12.9338 16.5411 13.4476 16.003 14.0719 15.6215L16.1729 16.5571L20.3906 18.4208C20.8219 20.699 19.3247 22.8956 17.0455 23.3267C16.4258 23.4439 15.7864 23.4204 15.177 23.2564C14.8236 23.1626 14.637 23.0539 14.397 22.9638L14.3971 22.9642Z" fill="black"/>
</svg>
