<svg width="24" height="24" viewBox="0 0 24 24" fill="none" xmlns="http://www.w3.org/2000/svg">
<path d="M12 1.5C9.21552 1.5 6.5448 2.60626 4.57488 4.57488C2.60614 6.54456 1.5 9.21552 1.5 12C1.5 14.7845 2.60626 17.4552 4.57488 19.4251C6.54456 21.3939 9.21552 22.5 12 22.5C14.7845 22.5 17.4552 21.3937 19.4251 19.4251C21.3939 17.4554 22.5 14.7845 22.5 12C22.5 9.21552 21.3937 6.5448 19.4251 4.57488C17.4554 2.60614 14.7845 1.5 12 1.5ZM6.75 11.25H3C3.10125 9.99562 3.46687 8.77584 4.07251 7.67256C5.0897 8.02507 6.12938 8.30818 7.18507 8.52005C6.94133 9.4116 6.795 10.3266 6.75 11.25ZM8.67749 8.77512C9.7781 8.927 10.889 9.002 12 9.00012C13.1016 9.00106 14.2013 8.92512 15.2926 8.77512C15.5364 9.58044 15.6901 10.4111 15.7501 11.25H8.2501C8.3101 10.4109 8.46385 9.58032 8.70758 8.77512H8.67749ZM6.75 12.75C6.79781 13.6763 6.94688 14.5941 7.19251 15.4874C6.1369 15.6965 5.09719 15.9778 4.07995 16.3274C3.48463 15.2221 3.12934 14.0024 3.03744 12.75H6.75ZM8.25 12.75H15.75C15.6863 13.5881 15.5381 14.4169 15.3075 15.2249C13.1278 14.9286 10.9172 14.9286 8.73749 15.2249C8.48436 14.4205 8.3203 13.5899 8.25 12.75ZM17.25 12.75H21C20.8988 14.0044 20.5331 15.2242 19.9275 16.3274C18.9028 15.974 17.8556 15.6909 16.7926 15.48C17.0364 14.5874 17.19 13.6734 17.25 12.75ZM17.25 11.25C17.2022 10.3266 17.0541 9.41155 16.8075 8.52C17.8631 8.30813 18.9028 8.025 19.92 7.67251C20.5285 8.77502 20.8969 9.99471 21 11.25L17.25 11.25ZM19.05 6.38256C18.1566 6.67507 17.2444 6.90756 16.32 7.08005C15.7481 5.6785 14.9559 4.37621 13.9725 3.22517C15.9647 3.67423 17.7441 4.78798 19.02 6.38261L19.05 6.38256ZM12 3C12.0009 3.20063 12.0816 3.39187 12.225 3.53251C13.2947 4.63032 14.1563 5.91377 14.7676 7.31995C12.9291 7.54495 11.0711 7.54495 9.23268 7.31995C9.84768 5.92682 10.7092 4.65643 11.7752 3.56995C11.9281 3.42089 12.0096 3.2137 12.0002 2.99995L12 3ZM10.0275 3.225C9.0553 4.37906 8.27249 5.6802 7.71 7.07988C6.78562 6.90738 5.87345 6.67488 4.98 6.38239C6.25594 4.78771 8.03525 3.67404 10.0275 3.225ZM4.98005 17.6176C5.8735 17.3251 6.78566 17.0926 7.71005 16.9201C8.27256 18.3198 9.05537 19.621 10.0275 20.775C8.03534 20.3259 6.25589 19.2122 4.98005 17.6176ZM12 21.0001C11.9991 20.7995 11.9185 20.6082 11.775 20.4676C10.7054 19.3698 9.84379 18.0864 9.23249 16.6802C11.0728 16.4552 12.9347 16.4552 14.775 16.6802C14.1807 18.0977 13.3144 19.384 12.225 20.4676C12.0816 20.6082 12.001 20.7995 12 21.0001ZM13.98 20.7751C14.9654 19.6295 15.7472 18.3226 16.29 16.9126C17.2135 17.0907 18.1257 17.326 19.0201 17.6176C17.746 19.2104 15.9694 20.3242 13.98 20.7751Z" fill="black"/>
</svg>
